<svg viewBox="0 0 512 512" xml:space="preserve" xmlns="http://www.w3.org/2000/svg"><g fill="none" stroke="#8247ff" stroke-linecap="round" stroke-linejoin="round" stroke-miterlimit="10" stroke-width="10" class="stroke-000000"><path d="M110.6 206.2c1.3.1 2.6.4 3.8 1 1.8 1 4 .7 5.5-.8l49.1-49.1c2.2-2.2 2.2-5.8 0-8-2.7-2.7-2.7-7.1 0-9.8l13.4-13.4c2.7-2.7 7.1-2.7 9.8 0l4 4 32-32c7.7-7.7 7.7-20.1 0-27.7l-42.6-42.6c-7.7-7.7-20.1-7.7-27.7 0l-32 32 3.3 3.3c3.5 3.5 3.5 9.3 0 12.8l-10.3 10.3c-3.5 3.5-9.3 3.5-12.8 0-1.8-1.8-4.7-1.8-6.5 0L49.8 136c-1.8 1.8-1.8 4.8 0 6.6 1.8 1.8 2.1 4.7.6 6.9-64.3 95-18.7 141.5-18.7 141.5 5.7-41.6 40.8-80.2 75.2-84.8 1.1-.1 2.5-.1 3.7 0zM444.1 412.7 186.2 174.3l-46.8 46.8L377.7 479c13.1 14 35.2 14.4 48.8.8l18.4-18.4c13.6-13.5 13.2-35.6-.8-48.7zM100.6 427.5c-14.3 14.3-14.3 37.4 0 51.7h0c14.3 14.3 37.4 14.3 51.7 0l102.6-102.6-49.7-53.7-104.6 104.6zM493.4 151.4l-55.9 55.9c-4.3 4.3-10.8 5.7-16.5 3.6l-31.3-11.7c-4.2-1.6-7.6-4.9-9.1-9.1l-11.7-31.3c-2.1-5.7-.7-12.2 3.6-16.5l55.9-55.9c-29.4-7.2-61.7.7-84.5 23.8-25.1 25.4-31.7 62.4-19.9 93.9l-36.1 36.1 53.7 49.7 34-34c31.7 12 68.9 5.2 94.4-20.3 22.8-22.9 30.6-55 23.4-84.2z"></path></g></svg>